<svg width="635" height="81" viewBox="0 0 635 81" fill="none" xmlns="http://www.w3.org/2000/svg">
<path d="M37.5 6.16797L47.3328 34.668L31.3328 36.168L28.3328 23.168H18.8328L17.8328 55.168L27.3328 58.168L29 48.668L44.8328 49.668L42.3328 71.668L31 73.168L12.5 72.668L5 69.168L3 56.668L4 12.668L11 4.16797L32.5 3.66797L37.5 6.16797Z" stroke="black" stroke-width="6"/>
<path d="M85.4579 7.16797L81.9579 13.668L81.4579 70.168L85.9579 75.668L93.9579 76.668H112.458L116.958 72.668L117.958 14.668L116.458 10.168L109.958 6.66797L85.4579 7.16797Z" stroke="black" stroke-width="6"/>
<path d="M161.458 75.168L160.958 6.16797L177.458 5.66797L176.833 58.168L192.833 57.168L190.958 75.168H161.458Z" stroke="black" stroke-width="6"/>
<path d="M518.537 75.168L515.686 3.83398L532.037 6.16797V29.834L535.037 31.668C538.87 23.0013 547.537 4.83398 547.537 4.83398C547.537 4.83398 561.667 6.50065 564.5 6.83398L549.204 38.334L564.5 72.334L547.537 76.168L538.186 45.334H535.037V77.334L518.537 75.168Z" stroke="black" stroke-width="6"/>
<path d="M85.4579 7.16797L81.9579 13.668L81.4579 70.168L85.9579 75.668L93.9579 76.668H112.458L116.958 72.668L117.958 14.668L116.458 10.168L109.958 6.66797L85.4579 7.16797Z" stroke="black" stroke-width="6"/>
<path d="M229 6.66797L225.5 13.168L225.25 41.418L225 69.668L229.5 75.168L237.5 76.168H256L260.5 72.168L261.5 14.168L260 9.66797L253.5 6.16797L229 6.66797Z" stroke="black" stroke-width="6"/>
<path d="M229 6.66797L225.5 13.168L225.25 41.418L225 69.668L229.5 75.168L237.5 76.168H256L260.5 72.168L261.5 14.168L260 9.66797L253.5 6.16797L229 6.66797Z" stroke="black" stroke-width="6"/>
<path d="M384.875 74.668L384.375 5.66797L400.875 5.16797L400.25 57.668L416.25 56.668L414.375 74.668H384.875Z" stroke="black" stroke-width="6"/>
<path d="M454 5.33398L450.5 11.834L450 68.334L454.5 73.834L462.5 74.834H481L485.5 70.834L486.5 12.834L485 8.33398L478.5 4.83398L454 5.33398Z" stroke="black" stroke-width="6"/>
<path d="M454 5.33398L450.5 11.834L450 68.334L454.5 73.834L462.5 74.834H481L485.5 70.834L486.5 12.834L485 8.33398L478.5 4.83398L454 5.33398Z" stroke="black" stroke-width="6"/>
<path d="M599.5 4.66797L596 11.168L595.75 39.418L595.5 67.668L600 73.168L608 74.168H626.5L631 70.168L632 12.168L630.5 7.66797L624 4.16797L599.5 4.66797Z" stroke="black" stroke-width="6"/>
<path d="M599.5 4.66797L596 11.168L595.75 39.418L595.5 67.668L600 73.168L608 74.168H626.5L631 70.168L632 12.168L630.5 7.66797L624 4.16797L599.5 4.66797Z" stroke="black" stroke-width="6"/>
<path d="M95.3142 60.834L96.8142 24.834H107.314L105.314 59.334L95.3142 60.834Z" stroke="black" stroke-width="5"/>
<path d="M238.314 60.334L239.814 24.334H250.314L248.314 58.834L238.314 60.334Z" stroke="black" stroke-width="5"/>
<path d="M608 58L609.5 22H620L618 56.5L608 58Z" stroke="black" stroke-width="5"/>
<path d="M461 58L462.5 22H473L471 56.5L461 58Z" stroke="black" stroke-width="5"/>
<path d="M320 29L319.5 17.5L331.5 19.5L330 29H320Z" stroke="black" stroke-width="5"/>
<path d="M321.102 74.7514H302.831L305.322 42.289L302 7.74566L336.051 4L344.771 10.2428L342.28 36.0462L331.483 44.7861L351 76H336.051L323.593 53.1098L316.949 54.3584L321.102 74.7514Z" stroke="black" stroke-width="5"/>
</svg>
