<svg width="441" height="92" viewBox="0 0 441 92" fill="none" xmlns="http://www.w3.org/2000/svg">
<path d="M37.5 10.168L47.3328 38.668L31.3328 40.168L28.3328 27.168H18.8328L17.8328 59.168L27.3328 62.168L29 52.668L44.8328 53.668L42.3328 75.668L31 77.168L12.5 76.668L5 73.168L3 60.668L4 16.668L11 8.16797L32.5 7.66797L37.5 10.168Z" stroke="black" stroke-width="6"/>
<path d="M85.4579 11.168L81.9579 17.668L81.4579 74.168L85.9579 79.668L93.9579 80.668H112.458L116.958 76.668L117.958 18.668L116.458 14.168L109.958 10.668L85.4579 11.168Z" stroke="black" stroke-width="6"/>
<path d="M161.458 79.168L160.958 10.168L177.458 9.66797L176.833 62.168L192.833 61.168L190.958 79.168H161.458Z" stroke="black" stroke-width="6"/>
<path d="M389.666 78.168L386.814 6.83398L403.166 9.16797V32.834L406.166 34.668C409.999 26.0013 418.666 7.83398 418.666 7.83398C418.666 7.83398 432.795 9.50065 435.628 9.83398L420.333 41.334L435.628 75.334L418.666 79.168L409.314 48.334H406.166V80.334L389.666 78.168Z" stroke="black" stroke-width="6"/>
<path d="M85.4579 11.168L81.9579 17.668L81.4579 74.168L85.9579 79.668L93.9579 80.668H112.458L116.958 76.668L117.958 18.668L116.458 14.168L109.958 10.668L85.4579 11.168Z" stroke="black" stroke-width="6"/>
<path d="M230.458 10.8627L226.958 17.3627L226.458 73.8627L230.958 79.3627L238.958 80.3627H257.458L261.958 76.3627L262.958 18.3627L261.458 13.8627L254.958 10.3627L230.458 10.8627Z" stroke="black" stroke-width="6"/>
<path d="M230.458 10.8627L226.958 17.3627L226.458 73.8627L230.958 79.3627L238.958 80.3627H257.458L261.958 76.3627L262.958 18.3627L261.458 13.8627L254.958 10.3627L230.458 10.8627Z" stroke="black" stroke-width="6"/>
<path d="M96.3142 64.834L97.8142 28.834H108.314L106.314 63.334L96.3142 64.834Z" stroke="black" stroke-width="5"/>
<path d="M239.314 64.334L240.814 28.334H251.314L249.314 62.834L239.314 64.334Z" stroke="black" stroke-width="5"/>
<path d="M324 33L323.5 21.5L335.5 23.5L334 33H324Z" stroke="black" stroke-width="5"/>
<path d="M327 88H305L308 49L304 7.5L345 3L355.5 10.5L352.5 41.5L339.5 52L363 89.5H345L330 62L322 63.5L327 88Z" stroke="black" stroke-width="5"/>
</svg>
